# xmcd
#
# Track frame offsets: 
#        150
#        15817
#        30374
#        44832
#        61566
#        77030
#        92184
#        106967
#        118153
#        131263
#        143238
#        156014
#        169604
#        183069
#        194214
#        208989
#        222006
#        234981
#        247250
#        262579
#
# Disc length: 3667 seconds
#
# Revision: 0
# Processed by: cddbd v1.5.2PL0 Copyright (c) Steve Scherf et al.
# Submitted via: ExactAudioCopy v0.95b4
#
DISCID=0a0e5114
DTITLE=THE ELLIS FAMILY BAND - THE ELLIS FAMILY BAND
DYEAR=2005
DGENRE=COUNTRY
TTITLE0=EASY TO LOVE
TTITLE1=I'LL BE LONG GONE
TTITLE2=SUMMER NIGHTS
TTITLE3=HOUR GLASS OF TIME
TTITLE4=WOMEN, MONEY OR WINE
TTITLE5=I'VE ALREADY LEFT YOU IN MY MIND
TTITLE6=YOU ARE THE ONE
TTITLE7=THANK YOU FOR BEING MY FRIEND
TTITLE8=I MELTED IN YOUR ARM LAST NIGHT
TTITLE9=WHY AM I STILL CRYIN'
TTITLE10=WHAT YOU'RE DOING TO ME
TTITLE11=I GOT THE SHORT END OF THE STICK
TTITLE12=I WISH YOU'D LAY IT ON THE LINE
TTITLE13=DON'T TEASE ME, PLEASE ME
TTITLE14=THAT MOTHER OF MINE
TTITLE15=MORE THAN THE GOLD
TTITLE16=SOMEWHERE TONIGHT
TTITLE17=BET YOUR BOOTS I LOVE YOU
TTITLE18=I LOVE YOU
TTITLE19=WHY AREN'T YOU IN MY LOVING ARMS TONIGHT
EXTD=
EXTT0=
EXTT1=
EXTT2=
EXTT3=
EXTT4=
EXTT5=
EXTT6=
EXTT7=
EXTT8=
EXTT9=
EXTT10=
EXTT11=
EXTT12=
EXTT13=
EXTT14=
EXTT15=
EXTT16=
EXTT17=
EXTT18=
EXTT19=
PLAYORDER=
